<svg xmlns="http://www.w3.org/2000/svg" width="128" height="128" viewBox="0 0 128 128" role="img" aria-label="Run Me icon">
	<defs>
		<linearGradient id="tile" x1="15" y1="9" x2="111" y2="119" gradientUnits="userSpaceOnUse">
			<stop offset="0" stop-color="#0e365d"/>
			<stop offset="0.56" stop-color="#082848"/>
			<stop offset="1" stop-color="#061a32"/>
		</linearGradient>
		<linearGradient id="prompt" x1="25" y1="41" x2="64" y2="85" gradientUnits="userSpaceOnUse">
			<stop offset="0" stop-color="#37b9ff"/>
			<stop offset="1" stop-color="#48dfd5"/>
		</linearGradient>
		<linearGradient id="play" x1="67" y1="38" x2="104" y2="83" gradientUnits="userSpaceOnUse">
			<stop offset="0" stop-color="#55e6c2"/>
			<stop offset="1" stop-color="#7cff8d"/>
		</linearGradient>
		<linearGradient id="cursor" x1="68" y1="93" x2="103" y2="93" gradientUnits="userSpaceOnUse">
			<stop offset="0" stop-color="#38baff"/>
			<stop offset="1" stop-color="#6ff3a6"/>
		</linearGradient>
		<filter id="soft-shadow" x="-20%" y="-20%" width="140%" height="150%">
			<feDropShadow dx="0" dy="5" stdDeviation="2.5" flood-color="#031525" flood-opacity="0.62"/>
		</filter>
		<clipPath id="clip">
			<rect x="1" y="1" width="126" height="126" rx="29"/>
		</clipPath>
	</defs>

	<rect x="1" y="1" width="126" height="126" rx="29" fill="url(#tile)"/>
	<g clip-path="url(#clip)" opacity="0.4" fill="none" stroke="#1c6a99" stroke-width="1.2" stroke-linecap="round">
		<path d="M22 19h10v-8"/>
		<path d="M45 13v17h10"/>
		<path d="M70 8v13h11"/>
		<path d="M100 18h-14v13"/>
		<path d="M12 49h15l8-8h10"/>
		<path d="M88 40h20l8-8"/>
		<path d="M18 91h18l9 9h16"/>
		<path d="M80 107h18v11"/>
		<path d="M112 78h-14l-8 8h-14"/>
		<circle cx="32" cy="11" r="1.8"/>
		<circle cx="55" cy="30" r="1.8"/>
		<circle cx="81" cy="21" r="1.8"/>
		<circle cx="45" cy="41" r="1.8"/>
		<circle cx="76" cy="86" r="1.8"/>
		<circle cx="98" cy="107" r="1.8"/>
	</g>

	<g filter="url(#soft-shadow)" stroke-linecap="round" stroke-linejoin="round">
		<path d="M32 43l23 20-23 20" fill="none" stroke="#0a6fa9" stroke-width="15" opacity="0.88"/>
		<path d="M32 39l23 20-23 20" fill="none" stroke="url(#prompt)" stroke-width="13"/>
		<path d="M70 41l31 20-31 20z" fill="#17835f" opacity="0.75"/>
		<path d="M69 37l31 20-31 20z" fill="url(#play)"/>
		<path d="M72 43l21 14-21 14z" fill="#b9ffd1" opacity="0.18"/>
		<path d="M70 93h32" stroke="#0a6fa9" stroke-width="12" opacity="0.75"/>
		<path d="M68 89h32" stroke="url(#cursor)" stroke-width="10"/>
	</g>

	<rect x="1" y="1" width="126" height="126" rx="29" fill="none" stroke="#2a74a1" stroke-opacity="0.35"/>
</svg>
